Patient4_TMGait_0pt6_01_left_27_GRF.mot
version=1
nRows=51
nColumns=19
inDegrees=no
endheader
time	F1x	F1y	F1z	M1x	M1y	M1z	F2x	F2y	F2z	M2x	M2y	M2z	EC1x	EC1y	EC1z	EC2x	EC2y	EC2z
32.87	-8.3342	-4.1169	3.2579	0.45037	-5.8104	-10.5023	-21.7827	671.3797	-54.7921	257.6394	62.105	672.4023	-0.0592	0.0182	-0.0073	-0.0462	0.0165	0.9585
32.8817	-5.7208	-1.7964	2.0702	-0.053212	-3.8142	-6.0083	-20.7954	677.3518	-54.641	259.5371	61.2357	676.4387	-0.0592	0.0182	-0.0073	-0.0462	0.0165	0.9585
32.8934	-3.5104	0.16783	1.1099	-0.48789	-2.1784	-2.1864	-19.5894	685.9696	-54.418	262.4687	60.1744	682.1831	-0.0592	0.0182	-0.0073	-0.0462	0.0165	0.9585
32.9051	-1.8361	1.6888	0.39971	-0.83053	-0.95703	0.75361	-18.2663	697.4539	-54.1709	266.5433	59.0273	689.9098	-0.0592	0.0182	-0.0073	-0.0462	0.0165	0.9585
32.9169	-0.68235	2.7802	-0.063481	-1.0812	-0.14081	2.8176	-16.8855	711.6056	-53.9769	271.6942	57.9022	699.5592	-0.0592	0.0182	-0.0073	-0.0462	0.0165	0.9585
32.9286	0.017008	3.4966	-0.33435	-1.2504	0.34229	4.1236	-15.4831	727.7822	-53.9153	277.6675	56.8877	710.6564	-0.0592	0.0182	-0.0073	-0.0462	0.0165	0.9585
32.9403	0.35603	3.902	-0.45364	-1.3479	0.55928	4.821	-14.0456	744.9335	-54.0394	284.0443	56.028	722.3217	-0.0592	0.0182	-0.0073	-0.0462	0.0165	0.9585
32.952	0.4276	4.0369	-0.46985	-1.3754	0.58721	5.0413	-12.5582	761.7518	-54.3569	290.3028	55.3175	733.4362	-0.0592	0.0182	-0.0073	-0.0462	0.0165	0.9585
32.9637	0.30857	3.912	-0.41921	-1.324	0.48477	4.8594	-10.9723	776.8259	-54.8441	295.8832	54.7135	742.7562	-0.0592	0.0182	-0.0073	-0.0462	0.0165	0.9585
32.9754	0.067329	3.4952	-0.32887	-1.1714	0.29937	4.2984	-9.2608	788.8121	-55.4368	300.2573	54.144	749.1031	-0.0592	0.0182	-0.0073	-0.0462	0.0165	0.9585
32.9871	-0.23785	2.7109	-0.22493	-0.88209	0.074904	3.3217	-7.3711	796.6075	-56.0578	302.9994	53.5205	751.5032	-0.0592	0.0182	-0.0073	-0.0462	0.0165	0.9585
32.9989	-0.56118	1.4764	-0.11924	-0.41914	-0.15663	1.8577	-5.287	799.5093	-56.624	303.8439	52.7633	749.3612	-0.0592	0.0182	-0.0073	-0.0462	0.0165	0.9585
33.0106	-0.84791	-0.28278	-0.0303	0.2483	-0.35691	-0.16608	-3.0021	797.233	-57.0744	302.6951	51.8181	742.4672	-0.0592	0.0182	-0.0073	-0.0462	0.0165	0.9585
33.0223	-1.0256	-2.5776	0.036053	1.1261	-0.49201	-2.7584	-0.53279	789.9548	-57.3831	299.6364	50.6712	731.0482	-0.0592	0.0182	-0.0073	-0.0462	0.0165	0.9585
33.034	-0.99366	-5.2879	0.065068	2.169	-0.5073	-5.794	2.1075	778.2793	-57.5563	294.9167	49.3381	715.706	-0.0592	0.0182	-0.0073	-0.0462	0.0165	0.9585
33.0457	-0.60242	-8.0928	0.04436	3.2521	-0.32976	-8.9216	4.8952	763.1888	-57.6603	288.9276	47.8897	697.3791	-0.0592	0.0182	-0.0073	-0.0462	0.0165	0.9585
33.0574	0.32867	-10.3657	-0.045948	4.1292	0.13606	-11.4575	7.8157	745.9191	-57.7872	282.1566	46.4201	677.2089	-0.0592	0.0182	-0.0073	-0.0462	0.0165	0.9585
33.0691	1.9962	-11.0825	-0.23369	4.3985	0.99685	-12.2794	10.8389	727.8172	-58.0134	275.1346	45.0217	656.4303	-0.0592	0.0182	-0.0073	-0.0462	0.0165	0.9585
33.0809	4.5843	-8.7462	-0.54358	3.4751	2.3475	-9.7365	13.9577	710.1821	-58.3583	268.3747	43.7327	636.219	-0.0592	0.0182	-0.0073	-0.0462	0.0165	0.9585
33.0926	8.189	-1.3592	-1.003	0.58108	4.2514	-1.6502	17.1512	694.1164	-58.7456	262.3104	42.5085	617.5736	-0.0592	0.0182	-0.0073	-0.0462	0.0165	0.9585
33.1043	12.7261	13.4543	-1.6243	-5.2107	6.6837	14.5731	20.4111	680.3742	-59.0327	257.2352	41.2425	601.184	-0.0592	0.0182	-0.0073	-0.0462	0.0165	0.9585
33.116	17.8003	38.1842	-2.3903	-14.8705	9.4649	41.6614	23.7058	669.2299	-59.0233	253.2474	39.7794	587.3337	-0.0592	0.0182	-0.0073	-0.0462	0.0165	0.9585
33.1277	22.5308	74.8542	-3.2295	-29.1863	12.1689	81.836	26.9845	660.316	-58.5063	250.1896	37.9533	575.7489	-0.0592	0.0182	-0.0073	-0.0462	0.0165	0.9585
33.1394	25.4047	124.1412	-3.9816	-48.4184	14.032	135.8432	30.1593	652.5158	-57.278	247.6086	35.6196	565.5183	-0.0592	0.0182	-0.0073	-0.0462	0.0165	0.9585
33.1511	24.3871	184.2829	-4.3672	-71.8724	13.9706	201.7618	33.1073	643.9715	-55.1565	244.768	32.6661	555.0889	-0.0592	0.0182	-0.0073	-0.0462	0.0165	0.9585
33.1629	17.8889	250.3278	-3.9476	-97.6014	10.9091	274.1564	35.6598	632.3145	-52.0098	240.7385	29.0445	542.4714	-0.0592	0.0182	-0.0073	-0.0462	0.0165	0.9585
33.1746	6.8784	315.0435	-1.7985	-122.7471	4.2627	345.043	37.638	615.0731	-47.8147	234.5565	24.8154	525.5722	-0.0592	0.0182	-0.0073	-0.0462	0.0165	0.9585
33.1863	-5.4999	372.5914	2.7053	-144.9935	-5.3782	407.7203	38.8802	590.2407	-42.6972	225.438	20.1617	502.683	-0.0592	0.0182	-0.0073	-0.0462	0.0165	0.9585
33.198	-16.9609	420.5745	8.6158	-163.4255	-16.0961	459.2488	39.254	556.7431	-36.9193	212.9515	15.3546	472.8873	-0.0592	0.0182	-0.0073	-0.0462	0.0165	0.9585
33.2097	-26.0105	459.2604	15.3456	-178.1679	-26.6397	499.7138	38.694	514.4567	-30.8759	197.0335	10.7387	436.0455	-0.0592	0.0182	-0.0073	-0.0462	0.0165	0.9585
33.2214	-31.919	490.1699	21.9652	-189.8588	-35.7407	530.8472	37.1308	464.1695	-24.9136	177.979	6.6017	392.7885	-0.0592	0.0182	-0.0073	-0.0462	0.0165	0.9585
33.2331	-34.736	515.3296	27.9256	-199.3216	-42.8365	554.9645	34.4944	407.5396	-19.2931	156.423	3.1588	344.4711	-0.0592	0.0182	-0.0073	-0.0462	0.0165	0.9585
33.2449	-35.0114	536.8262	32.8492	-207.3941	-47.7551	574.4679	30.7471	346.9787	-14.2118	133.2949	0.55504	293.0826	-0.0592	0.0182	-0.0073	-0.0462	0.0165	0.9585
33.2566	-33.301	556.6706	36.539	-214.8771	-50.5621	591.651	26.0039	285.4107	-9.8291	109.7269	-1.1484	241.0316	-0.0592	0.0182	-0.0073	-0.0462	0.0165	0.9585
33.2683	-30.3382	576.7466	39.1924	-222.4903	-51.7595	608.6842	20.5646	225.9883	-6.2721	86.9374	-1.9735	190.9294	-0.0592	0.0182	-0.0073	-0.0462	0.0165	0.9585
33.28	-26.6927	598.4653	40.8704	-230.7737	-51.6708	627.1723	14.9401	171.5656	-3.582	66.0373	-2.079	145.0991	-0.0592	0.0182	-0.0073	-0.0462	0.0165	0.9585
33.2917	-22.8566	622.5587	41.9427	-239.9811	-50.881	648.0583	9.6998	124.2785	-1.7101	47.8579	-1.7085	105.2902	-0.0592	0.0182	-0.0073	-0.0462	0.0165	0.9585
33.3034	-19.3051	648.775	42.6405	-250.0001	-49.8285	671.1242	5.3096	85.2058	-0.51329	32.8288	-1.1352	72.3586	-0.0592	0.0182	-0.0073	-0.0462	0.0165	0.9585
33.3151	-16.445	676.1359	43.4626	-260.422	-49.1781	695.4638	1.9626	54.4747	0.16754	21.0077	-0.54011	46.4192	-0.0592	0.0182	-0.0073	-0.0462	0.0165	0.9585
33.3269	-14.4279	703.4847	44.5565	-270.783	-49.1501	719.8903	-0.32456	31.5166	0.50339	12.1802	-0.047363	26.9993	-0.0592	0.0182	-0.0073	-0.0462	0.0165	0.9585
33.3386	-13.2406	729.7467	45.9928	-280.6578	-49.8037	743.2926	-1.7002	15.3764	0.60199	5.9749	0.32106	13.3396	-0.0592	0.0182	-0.0073	-0.0462	0.0165	0.9585
33.3503	-12.6408	753.8809	47.5937	-289.6503	-50.8725	764.5614	-2.3077	4.9104	0.55164	1.9516	0.55191	4.4776	-0.0592	0.0182	-0.0073	-0.0462	0.0165	0.9585
33.362	-12.4365	774.7898	49.1833	-297.3443	-52.1027	782.56	-2.3986	-1.0724	0.42209	-0.3514	0.67094	-0.57391	-0.0592	0.0182	-0.0073	-0.0462	0.0165	0.9585
33.3737	-12.4756	791.3976	50.6775	-303.3382	-53.3372	796.1752	-2.1772	-3.8117	0.27799	-1.4083	0.69607	-2.8805	-0.0592	0.0182	-0.0073	-0.0462	0.0165	0.9585
33.3854	-12.5781	802.9608	51.9898	-307.3492	-54.4179	804.6686	-1.8299	-4.4037	0.14666	-1.6435	0.66643	-3.3543	-0.0592	0.0182	-0.0073	-0.0462	0.0165	0.9585
33.3971	-12.6482	809.1107	53.1548	-309.2423	-55.3249	807.6859	-1.4433	-3.7715	0.036852	-1.408	0.60716	-2.7922	-0.0592	0.0182	-0.0073	-0.0462	0.0165	0.9585
33.4089	-12.6176	810.0177	54.0983	-309.0923	-55.9532	805.4023	-1.1017	-2.5529	-0.045593	-0.94842	0.53852	-1.7156	-0.0592	0.0182	-0.0073	-0.0462	0.0165	0.9585
33.4206	-12.3971	806.3319	54.8326	-307.1563	-56.2805	798.5094	-0.81132	-1.2121	-0.11162	-0.43851	0.47519	-0.53876	-0.0592	0.0182	-0.0073	-0.0462	0.0165	0.9585
33.4323	-11.9167	799.0838	55.2515	-303.8433	-56.179	788.0152	-0.61321	0.01304	-0.15593	0.028914	0.42529	0.54797	-0.0592	0.0182	-0.0073	-0.0462	0.0165	0.9585
33.444	-11.1379	789.4744	55.3827	-299.6207	-55.6629	775.1196	-0.47061	0.99131	-0.18716	0.40465	0.39198	1.4019	-0.0592	0.0182	-0.0073	-0.0462	0.0165	0.9585
33.4557	-9.9971	778.6675	55.2363	-294.9405	-54.7278	760.9694	-0.40496	1.7133	-0.20177	0.68284	0.37671	2.0283	-0.0592	0.0182	-0.0073	-0.0462	0.0165	0.9585
